<svg xmlns="http://www.w3.org/2000/svg" width="1280" height="420" viewBox="0 0 1280 420" role="img" aria-labelledby="title desc">
  <title id="title">Spot2YTMusic</title>
  <desc id="desc">Review the match. Keep the order. Spotify CSV to a private YouTube Music playlist.</desc>
  <defs>
    <linearGradient id="background" x2="1" y2="1">
      <stop stop-color="#11162b"/>
      <stop offset="0.58" stop-color="#0e1931"/>
      <stop offset="1" stop-color="#102b37"/>
    </linearGradient>
    <linearGradient id="route" x2="1" y2="0">
      <stop stop-color="#a990ff"/>
      <stop offset="1" stop-color="#61dec9"/>
    </linearGradient>
    <radialGradient id="aura">
      <stop stop-color="#5a53b7" stop-opacity="0.28"/>
      <stop offset="1" stop-color="#5a53b7" stop-opacity="0"/>
    </radialGradient>
    <clipPath id="canvas"><rect x="1" y="1" width="1278" height="418" rx="28"/></clipPath>
  </defs>
  <rect x="1" y="1" width="1278" height="418" rx="28" fill="url(#background)" stroke="#394365" stroke-width="2"/>
  <g clip-path="url(#canvas)">
    <circle cx="212" cy="182" r="310" fill="url(#aura)"/>
    <path d="M0 352h1280M0 367h1280M0 382h1280M0 397h1280" stroke="#8a94c2" stroke-opacity="0.07"/>
    <path d="M1125 0v420M1145 0v420M1165 0v420M1185 0v420M1205 0v420M1225 0v420" stroke="#8a94c2" stroke-opacity="0.06"/>
  </g>
  <rect x="74" y="92" width="226" height="236" rx="30" fill="#18233d" stroke="#52618a" stroke-width="2"/>
  <rect x="95" y="113" width="184" height="194" rx="22" fill="#121c34" stroke="#303f64"/>
  <g fill="none" stroke="url(#route)" stroke-width="13" stroke-linecap="round" stroke-linejoin="round">
    <path d="M122 157h91"/>
    <path d="M122 210h91"/>
    <path d="M122 263h91"/>
    <path d="m206 210 30 0-15-15m15 15-15 15"/>
  </g>
  <circle cx="259" cy="210" r="28" fill="#142d3e" stroke="#61dec9" stroke-width="5"/>
  <path d="m246 210 9 9 17-19" fill="none" stroke="#79eed9" stroke-width="5" stroke-linecap="round" stroke-linejoin="round"/>
  <text x="350" y="178" font-family="Segoe UI, Arial, sans-serif" font-size="76" font-weight="750" fill="#f7f8ff">Spot<tspan fill="#b49eff">2</tspan>YT<tspan fill="#79e9d5">Music</tspan></text>
  <text x="354" y="230" font-family="Segoe UI, Arial, sans-serif" font-size="29" fill="#b8c8dd">Review the match. Keep the order.</text>
  <g font-family="Segoe UI, Arial, sans-serif" font-size="17" font-weight="700" letter-spacing="1">
    <rect x="354" y="277" width="152" height="42" rx="10" fill="#26274a" stroke="#605797"/>
    <text x="374" y="305" fill="#ddd3ff">SPOTIFY CSV</text>
    <path d="m518 298 24 0-7-7m7 7-7 7" fill="none" stroke="#8190ae" stroke-width="3" stroke-linecap="round" stroke-linejoin="round"/>
    <rect x="557" y="277" width="175" height="42" rx="10" fill="#1a3147" stroke="#397a90"/>
    <text x="576" y="305" fill="#bbebee">REVIEW SHEET</text>
    <path d="m744 298 24 0-7-7m7 7-7 7" fill="none" stroke="#8190ae" stroke-width="3" stroke-linecap="round" stroke-linejoin="round"/>
    <rect x="783" y="277" width="217" height="42" rx="10" fill="#173b42" stroke="#388e88"/>
    <text x="802" y="305" fill="#c5f6e8">PRIVATE PLAYLIST</text>
  </g>
</svg>
